HIERARCHY
ROOT Hips
{
  OFFSET -32.5998 29.0326 120.673
  CHANNELS 6 Xposition Yposition Zposition Zrotation Xrotation Yrotation
  JOINT LeftUpLeg
  {
    OFFSET 8.64259 1.95398 -2.38835
    CHANNELS 3 Zrotation Xrotation Yrotation
    JOINT LeftLeg
    {
      OFFSET 43.7702 0 0
      CHANNELS 3 Zrotation Xrotation Yrotation
      JOINT LeftFoot
      {
        OFFSET 40.6238 0 0
        CHANNELS 3 Zrotation Xrotation Yrotation
        JOINT LeftToeBase
        {
          OFFSET 12.7242 0 0
          CHANNELS 3 Zrotation Xrotation Yrotation
          End Site
          {
            OFFSET 0 0 0
          }
        }
      }
    }
  }
  JOINT RightUpLeg
  {
    OFFSET -8.2249 1.95398 -2.59336
    CHANNELS 3 Zrotation Xrotation Yrotation
    JOINT RightLeg
    {
      OFFSET 43.5653 0 0
      CHANNELS 3 Zrotation Xrotation Yrotation
      JOINT RightFoot
      {
        OFFSET 40.6238 0 0
        CHANNELS 3 Zrotation Xrotation Yrotation
        JOINT RightToeBase
        {
          OFFSET 12.7242 0 0
          CHANNELS 3 Zrotation Xrotation Yrotation
          End Site
          {
            OFFSET 0 0 0
          }
        }
      }
    }
  }
  JOINT Spine
  {
    OFFSET 0.165834 0.87714 6.61349
    CHANNELS 3 Zrotation Xrotation Yrotation
    JOINT Spine1
    {
      OFFSET 7.38963 1.71661e-005 0
      CHANNELS 3 Zrotation Xrotation Yrotation
      JOINT Spine2
      {
        OFFSET 11.9445 1.14441e-005 0
        CHANNELS 3 Zrotation Xrotation Yrotation
        JOINT Spine3
        {
          OFFSET 14.7254 4.19617e-005 0
          CHANNELS 3 Zrotation Xrotation Yrotation
          JOINT Spine4
          {
            OFFSET 10.9679 0 0
            CHANNELS 3 Zrotation Xrotation Yrotation
            JOINT RightShoulder
            {
              OFFSET 2.46616 -1.6653 3.69651
              CHANNELS 3 Zrotation Xrotation Yrotation
              JOINT RightArm
              {
                OFFSET 13.0012 0 0
                CHANNELS 3 Zrotation Xrotation Yrotation
                JOINT RightForeArm
                {
                  OFFSET 28.7848 1.62311e-005 0
                  CHANNELS 3 Zrotation Xrotation Yrotation
                  JOINT RightHand
                  {
                    OFFSET 26.5688 1.62095e-005 0
                    CHANNELS 3 Zrotation Xrotation Yrotation
                    End Site
                    {
                      OFFSET 0 0 0
                    }
                  }
                }
              }
            }
            JOINT LeftShoulder
            {
              OFFSET 2.38034 -1.29275 -3.7523
              CHANNELS 3 Zrotation Xrotation Yrotation
              JOINT LeftArm
              {
                OFFSET 16.3182 6.07031e-005 0
                CHANNELS 3 Zrotation Xrotation Yrotation
                JOINT LeftForeArm
                {
                  OFFSET 27.0901 0 0
                  CHANNELS 3 Zrotation Xrotation Yrotation
                  JOINT LeftHand
                  {
                    OFFSET 24.5451 1.51738e-005 0
                    CHANNELS 3 Zrotation Xrotation Yrotation
                    End Site
                    {
                      OFFSET 0 0 0
                    }
                  }
                }
              }
            }
            JOINT Neck
            {
              OFFSET 5.0226 -0.0266342 0
              CHANNELS 3 Zrotation Xrotation Yrotation
              JOINT Head
              {
                OFFSET 6.69364 2.86102e-005 0
                CHANNELS 3 Zrotation Xrotation Yrotation
                End Site
                {
                  OFFSET 0 0 0
                }
              }
            }
          }
        }
      }
    }
  }
}
MOTION
Frames:	13
Frame Time:	0.0416667
39.2581 101.235 28.502 -173.412 -81.3049 -174.917 -173.736 -7.53078 89.2554 -10.6844 7.43733 0.433452 71.1626 6.22143 -2.80198 14.5939 -10.3163 7.10003 170.077 -7.21494 85.711 -10.9503 -4.56478 -0.0905544 67.4882 -4.34668 1.31879 26.3855 0.316185 2.85448 0.161541 8.03529 -89.9132 10.8031 0.361794 0.139089 -0.867812 0.367564 0.123027 -23.4032 0.303265 0.241388 -3.39058 0.303261 0.241383 89.5644 -28.0407 -108.419 41.9843 -23.5226 -8.33279 -10.9261 -12.566 -22.5999 -10.3182 -0.20928 -2.94774 -88.7323 -46.9129 80.0084 -22.1866 31.7032 -19.3931 4.68162 -6.3932 -6.88822 -0.798193 -0.100974 -5.13033 4.76215 -1.75861 -3.32866 -5.70119 -1.16017 1.49253 
39.0994 101.267 28.466 -174.681 -81.7597 -175.731 -173.267 -6.65759 90.0248 -11.3237 8.13542 0.162776 71.3427 6.21961 -2.94942 15.1136 -10.5366 7.93611 170.748 -7.17168 86.5537 -10.3663 -4.40882 -0.227878 66.537 -3.87672 0.816443 26.393 0.134772 3.52457 0.1455 7.98123 -89.9589 10.9113 0.308735 0.052601 -0.759573 0.310745 0.0389509 -23.295 0.27865 0.14295 -3.28232 0.278649 0.142954 89.509 -28.2334 -108.45 42.2675 -22.709 -8.34415 -11.2601 -13.522 -22.5935 -11.1189 -0.261807 -2.54009 -88.7682 -46.9463 79.9597 -21.3431 33.12 -19.2514 4.17951 -7.18701 -7.63897 -0.28565 -0.08807 -4.21909 4.03954 -1.84007 -3.92952 -4.40369 -1.15057 2.53545 
39.117 101.257 28.4222 -174.813 -82.1164 -176.213 -173.577 -6.45356 89.5327 -11.0919 8.04507 0.203909 71.245 6.26006 -2.72674 15.1652 -10.5297 7.9726 170.569 -6.58882 86.2273 -10.6725 -4.54658 -0.163899 66.7694 -3.91097 0.907402 26.2177 0.411908 2.76449 0.160883 7.93722 -89.9433 10.9993 0.346609 0.0797656 -0.67161 0.349785 0.0644283 -23.207 0.306607 0.180249 -3.1944 0.306609 0.180248 89.6944 -28.1414 -108.112 42.331 -22.645 -8.18282 -11.3699 -13.7601 -22.7056 -11.1145 -0.26229 -2.53909 -89.0608 -47.0665 79.5317 -21.1162 33.4343 -19.4546 3.92616 -8.00825 -7.50926 -0.275168 -0.108457 -5.3382 3.7523 -1.86643 -3.64068 -3.91577 -1.22274 2.17174 
39.1375 101.267 28.406 -174.667 -82.1412 -176.066 -173.534 -6.44483 89.558 -11.0304 8.05153 0.142316 71.1826 6.20909 -2.86316 15.2004 -10.5397 8.02157 170.576 -6.47528 86.2109 -10.7863 -4.61229 -0.178238 66.7945 -3.95159 0.679691 26.0763 0.3211 3.32184 0.181268 7.9272 -89.9777 11.0195 0.371247 0.00885755 -0.651372 0.371279 -0.00749504 -23.1869 0.35142 0.120028 -3.17429 0.351423 0.120017 89.916 -27.8122 -107.797 42.4972 -22.7596 -8.08665 -11.8454 -14.8449 -22.9083 -10.1935 -0.193635 -3.10852 -89.327 -47.5891 79.2318 -20.7548 33.3029 -19.5492 3.8886 -7.98222 -7.36354 0.227137 -0.105417 -5.19746 3.55609 -1.90042 -3.15055 -3.85717 -1.34424 1.87443 
39.1378 101.264 28.4208 -175.004 -82.1106 -176.382 -173.534 -6.40415 89.5515 -11.188 8.08828 0.157862 71.3167 6.32679 -2.61697 14.8131 -10.6731 7.88424 170.543 -6.54982 86.2146 -10.7656 -4.63439 -0.142908 66.7563 -3.93492 0.739091 26.2198 0.308117 3.14656 0.1755 7.93141 -89.9756 11.0111 0.360736 0.0140593 -0.659836 0.361008 -0.00184466 -23.1954 0.339832 0.121824 -3.18271 0.339833 0.121826 89.8746 -27.8487 -107.866 42.5216 -22.5579 -8.14003 -11.9435 -15.0706 -22.86 -10.2162 -0.190218 -3.15181 -89.2197 -47.4855 79.3752 -20.7116 33.5183 -19.6252 3.89871 -7.83691 -7.54163 0.143496 -0.104737 -5.18436 3.68068 -1.86053 -3.19861 -3.99581 -1.29563 1.92714 
39.121 101.262 28.4327 -175.23 -82.039 -176.571 -173.515 -6.44591 89.628 -11.2555 8.21 0.184729 71.2879 6.2708 -2.74706 15.1275 -10.5075 7.90119 170.547 -6.68356 86.273 -10.6824 -4.76516 -0.117728 66.7094 -3.96102 0.547366 26.2515 0.423408 2.66785 0.185968 7.93079 -89.984 11.0036 0.377682 -0.00416672 -0.667265 0.377131 -0.0207872 -23.2028 0.361468 0.109533 -3.19018 0.36148 0.109542 89.9115 -27.8569 -107.788 42.4892 -22.6584 -8.06114 -12.1564 -15.4365 -23.1045 -9.85519 -0.174451 -3.27363 -89.3465 -47.5576 79.1951 -20.5321 33.697 -19.6926 3.70324 -8.55219 -7.46113 -0.318503 -0.104384 -5.45451 3.60841 -1.97558 -3.16377 -3.87425 -1.41437 1.78494 
39.1411 101.256 28.4532 -175.104 -82.0633 -176.487 -173.551 -6.51909 89.5373 -11.1036 8.25197 0.174874 71.2777 6.36229 -2.43491 14.831 -10.6449 7.85468 170.554 -6.59068 86.2083 -10.8126 -4.61505 -0.172144 66.767 -3.93505 0.725851 26.1582 0.364628 3.03173 0.189949 7.92924 -89.9726 11.016 0.390892 0.0171109 -0.654923 0.391261 -0.000117926 -23.1905 0.367673 0.1338 -3.17786 0.367674 0.133791 89.8818 -27.9755 -107.799 42.4136 -22.7463 -8.11614 -12.162 -15.6456 -23.076 -10.208 -0.183613 -3.2315 -89.3419 -47.4362 79.1762 -20.5955 33.7501 -19.7132 3.75152 -8.25204 -7.48134 -0.583641 -0.104248 -5.32536 3.70276 -1.98307 -3.35095 -3.98218 -1.38925 1.89041 
39.1269 101.269 28.4894 -175.572 -81.9194 -176.865 -173.482 -6.64408 89.6802 -11.1896 8.25913 0.204271 71.3038 6.29781 -2.67273 15.0056 -10.614 7.96429 170.535 -6.88252 86.2826 -10.6464 -4.80325 -0.127017 66.586 -3.84553 0.675919 26.4663 0.327486 2.68315 0.179127 7.94194 -89.9805 10.99 0.365683 0.00390594 -0.680877 0.365496 -0.0121989 -23.2164 0.347599 0.113632 -3.20378 0.347598 0.113624 89.7801 -27.9815 -108.004 42.4605 -22.6248 -8.05064 -12.4034 -15.9607 -23.2119 -9.83223 -0.1727 -3.28733 -89.2517 -47.4885 79.3262 -20.4476 33.8973 -19.6111 3.68755 -8.65301 -7.69728 -0.478014 -0.104154 -5.38333 3.72712 -1.92399 -3.37817 -3.81534 -1.32283 1.9605 
39.1353 101.259 28.5193 -176.082 -81.8552 -177.378 -173.435 -6.67897 89.7087 -11.298 8.34015 0.16671 71.4749 6.40375 -2.58626 14.7043 -10.5925 7.65289 170.574 -7.02991 86.2702 -10.4562 -4.2611 -0.191901 66.8598 -4.12802 0.443571 25.8757 0.229726 3.97059 0.184483 7.95443 -89.9856 10.965 0.373981 -0.00684747 -0.705862 0.373323 -0.0233209 -23.2414 0.358747 0.105867 -3.22878 0.358755 0.105861 89.9095 -28.0545 -107.711 42.3793 -22.8259 -8.1743 -12.0142 -15.0006 -23.1125 -9.95823 -0.174372 -3.29194 -89.3417 -47.3545 79.1588 -20.6891 33.5852 -19.7327 3.81683 -8.36018 -7.34932 -0.176329 -0.104528 -5.30794 3.89796 -2.02421 -3.49702 -3.97344 -1.39949 2.15768 
39.1212 101.268 28.5161 -176.147 -81.9378 -177.495 -173.419 -6.59993 89.7093 -11.2521 8.41304 0.115907 71.3018 6.29763 -2.73346 15.0183 -10.6314 8.00433 170.517 -6.82383 86.239 -10.7756 -4.75376 -0.129972 66.6485 -3.84719 0.797803 26.4574 0.422415 2.34419 0.17757 7.94233 -89.9785 10.9892 0.363506 0.00809718 -0.681676 0.363503 -0.00791803 -23.2172 0.344263 0.116964 -3.20456 0.344266 0.116968 89.8338 -28.1066 -107.843 42.3107 -22.6962 -8.15315 -12.329 -15.7222 -23.2495 -9.85074 -0.158937 -3.46187 -89.3021 -47.3794 79.2254 -20.5583 33.8357 -19.6165 3.76643 -8.29609 -7.65972 -0.328476 -0.105189 -4.89092 3.87819 -1.99291 -3.58089 -4.10766 -1.35792 2.24002 
39.1311 101.272 28.5254 -175.903 -81.825 -177.192 -173.421 -6.70353 89.7375 -11.2947 8.27618 0.168464 71.3774 6.31665 -2.72931 14.8 -10.675 7.87565 170.52 -7.00846 86.2719 -10.6402 -4.7854 -0.132545 66.6571 -3.91976 0.617456 26.333 0.40395 2.61129 0.185196 7.9542 -89.9863 10.9658 0.37508 -0.00836739 -0.705063 0.374353 -0.0248744 -23.2406 0.360255 0.104745 -3.22798 0.360255 0.104746 89.8458 -28.049 -107.842 42.3648 -22.7218 -8.12667 -12.0433 -15.0844 -23.0855 -9.84476 -0.170879 -3.31355 -89.3152 -47.3885 79.2071 -20.5867 33.6848 -19.6136 3.76373 -8.33973 -7.49086 -0.204311 -0.105741 -4.8617 3.80683 -1.93764 -3.56311 -4.06151 -1.30735 2.13558 
39.1416 101.259 28.5309 -176.157 -81.8454 -177.514 -173.462 -6.72338 89.6636 -11.2327 8.49243 0.160846 71.2929 6.32218 -2.5785 14.9562 -10.5255 7.77348 170.505 -6.96423 86.1874 -10.6114 -4.51119 -0.167604 66.7514 -4.00662 0.333446 26.2572 0.0604022 4.01009 0.186686 7.95124 -89.9837 10.9657 0.379246 -0.00356737 -0.705198 0.378719 -0.0202589 -23.2408 0.362783 0.110584 -3.22813 0.362779 0.110572 89.9031 -28.0992 -107.705 42.2817 -22.7242 -8.18609 -12.0935 -15.3088 -23.093 -10.163 -0.169004 -3.39458 -89.3117 -47.5777 79.253 -20.3012 33.9643 -19.6561 3.65959 -8.53125 -7.71525 -0.41609 -0.105928 -5.07155 3.81745 -1.91569 -3.49463 -4.10091 -1.29777 2.10809 
39.1313 101.256 28.5259 -176.367 -81.8342 -177.655 -173.361 -6.73109 89.8038 -11.2486 8.50997 0.108439 71.4692 6.38918 -2.76145 14.9312 -10.7084 8.05067 170.544 -7.03054 86.3025 -10.6267 -4.75854 -0.14484 66.6737 -3.93027 0.51174 26.2347 0.376739 2.86783 0.178471 7.96084 -89.9876 10.9522 0.361117 -0.00951063 -0.718659 0.360355 -0.0254104 -23.2542 0.347276 0.0994629 -3.24155 0.347281 0.0994498 89.8493 -28.1894 -107.778 42.1447 -22.8935 -8.25647 -12.006 -15.2219 -23.014 -10.0062 -0.155886 -3.5263 -89.2024 -47.4242 79.3884 -20.6216 33.5822 -19.6388 3.88099 -7.99185 -7.60414 -0.277697 -0.105567 -4.91119 3.99151 -1.89933 -3.57096 -4.2194 -1.26492 2.10565 
